# File created by Blade
# Date/Time:  Mon Sep 22 17:38:34 2014
# Frame Rate: 120.000 fps
#------------------------------------------------------
:FULLY-SPECIFIED
:DEGREES
3930
root 2.187653 37.429487 6.362644 13.214290 33.807947 30.404477
RightUpLeg -2.150361 -18.391841 -18.950325
RightLeg 26.099624 -0.000000 -0.000000
RightFoot -35.372458 -28.822404 24.313919
RightToeBase 8.114749 -0.000000 -0.000000
LeftUpLeg 5.081310 2.340013 8.084869
LeftLeg 103.528394 -0.000000 -0.000000
LeftFoot 24.518639 21.716650 -35.124511
LeftToeBase -7.233817 -0.000000 0.000000
Spine 14.071783 -0.321638 -9.225877
RightShoulder -1.334956 -20.846975 -17.927919
RightArm 20.245687 17.901480 49.655527
RightForeArm 9.929561 -0.000000 112.551881
RightHand 3.547612 -0.000000 -36.572103
RightHandThumb1 -24.326973 -0.000000 -32.862282
LeftShoulder -26.948329 36.186309 -15.291519
LeftArm 30.402773 -11.615746 -70.386440
LeftForeArm 33.183657 -0.000000 57.528881
LeftHand -27.986518 -0.000000 16.885961
LeftHandThumb1 -26.253704 0.000000 33.147579
Head 13.670778 -24.235365 -13.669323
3931
root 2.204135 37.448063 6.368702 13.165988 32.604355 30.121539
RightUpLeg -2.762574 -18.098224 -18.975695
RightLeg 26.114380 -0.000000 -0.000000
RightFoot -35.020844 -28.198957 23.950028
RightToeBase 8.464276 -0.000000 -0.000000
LeftUpLeg 5.830870 1.126224 7.606328
LeftLeg 103.401061 -0.000000 -0.000000
LeftFoot 24.349342 21.791477 -35.239490
LeftToeBase -6.928537 -0.000000 0.000000
Spine 13.613319 0.822067 -9.218095
RightShoulder -1.244637 -20.984898 -17.948069
RightArm 20.319623 17.805656 49.618334
RightForeArm 9.774335 -0.000000 112.562482
RightHand 3.577261 0.000000 -36.662894
RightHandThumb1 -24.326973 -0.000000 -32.862282
LeftShoulder -27.182854 36.231389 -15.551193
LeftArm 30.005035 -12.042230 -70.587128
LeftForeArm 33.195790 -0.000000 56.890854
LeftHand -27.232957 0.000000 17.477551
LeftHandThumb1 -26.253704 0.000000 33.147579
Head 13.773429 -24.099792 -13.875784
3932
root 2.192290 37.456952 6.363960 13.180683 31.532698 29.755669
RightUpLeg -3.485730 -17.845636 -18.802067
RightLeg 26.135759 -0.000000 -0.000000
RightFoot -34.709087 -27.742561 23.578381
RightToeBase 8.216772 -0.000000 -0.000000
LeftUpLeg 6.363979 -0.081390 7.311807
LeftLeg 103.350941 -0.000000 -0.000000
LeftFoot 24.614100 21.628878 -34.680382
LeftToeBase -7.299518 -0.000000 0.000000
Spine 13.130212 1.853778 -9.138783
RightShoulder -1.182523 -21.023232 -17.953655
RightArm 20.362883 17.680710 49.593958
RightForeArm 9.589466 -0.000000 112.564675
RightHand 3.547602 0.000000 -36.780103
RightHandThumb1 -24.326973 -0.000000 -32.862282
LeftShoulder -27.394466 36.197584 -15.741142
LeftArm 29.600484 -12.485960 -70.811262
LeftForeArm 33.366489 -0.000000 56.383593
LeftHand -27.980694 -0.000000 17.350992
LeftHandThumb1 -26.253704 0.000000 33.147579
Head 13.775882 -24.007583 -13.979489
3933
root 2.190013 37.468321 6.359178 13.229819 30.433450 29.419119
RightUpLeg -4.211996 -17.575891 -18.665158
RightLeg 26.144345 -0.000000 -0.000000
RightFoot -34.436779 -27.191872 23.289892
RightToeBase 8.587789 -0.000000 -0.000000
LeftUpLeg 6.893487 -1.176298 6.969192
LeftLeg 103.322783 -0.000000 -0.000000
LeftFoot 24.569076 21.506803 -34.544683
LeftToeBase -7.020254 -0.000000 0.000000
Spine 12.604372 2.870642 -9.085202
RightShoulder -1.109520 -21.100546 -17.966935
RightArm 20.442552 17.557088 49.561899
RightForeArm 9.413692 -0.000000 112.557755
RightHand 3.515787 -0.000000 -36.860856
RightHandThumb1 -24.326973 -0.000000 -32.862282
LeftShoulder -27.622902 36.144405 -15.941337
LeftArm 29.093957 -12.925677 -70.978795
LeftForeArm 33.325693 0.000000 55.931393
LeftHand -28.186718 0.000000 17.548732
LeftHandThumb1 -26.253704 0.000000 33.147579
Head 13.817264 -23.874912 -14.102425
3934
root 2.186890 37.478033 6.356819 13.259486 29.338880 29.070687
RightUpLeg -4.903887 -17.298538 -18.514182
RightLeg 26.135663 -0.000000 -0.000000
RightFoot -34.128814 -26.678075 22.945525
RightToeBase 8.576667 -0.000000 -0.000000
LeftUpLeg 7.433218 -2.141228 6.644318
LeftLeg 103.294340 -0.000000 -0.000000
LeftFoot 24.666985 21.438972 -34.023011
LeftToeBase -6.540874 -0.000000 0.000000
Spine 12.108870 3.860626 -9.039389
RightShoulder -1.011102 -21.155770 -17.986728
RightArm 20.519920 17.424418 49.535733
RightForeArm 9.299166 -0.000000 112.551484
RightHand 3.545327 -0.000000 -36.902394
RightHandThumb1 -24.326973 -0.000000 -32.862282
LeftShoulder -27.872954 36.074967 -16.136882
LeftArm 28.572194 -13.426377 -71.173352
LeftForeArm 33.272191 0.000000 55.515388
LeftHand -27.983023 -0.000000 18.026224
LeftHandThumb1 -26.253704 0.000000 33.147579
Head 13.843809 -23.742973 -14.207079
3935
root 2.179475 37.487176 6.348015 13.338315 28.309378 28.741425
RightUpLeg -5.611071 -17.048854 -18.352006
RightLeg 26.131686 -0.000000 -0.000000
RightFoot -33.765161 -26.211369 22.561002
RightToeBase 8.452591 -0.000000 -0.000000
LeftUpLeg 7.880135 -3.129452 6.322982
LeftLeg 103.338296 -0.000000 -0.000000
LeftFoot 24.719003 21.376483 -33.793900
LeftToeBase -6.316904 -0.000000 0.000000
Spine 11.608289 4.782005 -9.004047
RightShoulder -0.939760 -21.199003 -18.001121
RightArm 20.622849 17.291291 49.537458
RightForeArm 9.099284 -0.000000 112.532339
RightHand 3.536038 -0.000000 -36.787638
RightHandThumb1 -24.326973 -0.000000 -32.862282
LeftShoulder -28.096983 36.015941 -16.314819
LeftArm 28.028656 -13.946650 -71.342497
LeftForeArm 33.237287 0.000000 55.226911
LeftHand -28.482570 -0.000000 18.290773
LeftHandThumb1 -26.253704 0.000000 33.147579
Head 13.834635 -23.648664 -14.284443
3936
root 2.170831 37.498778 6.335804 13.426309 27.336706 28.493240
RightUpLeg -6.268747 -16.806927 -18.259171
RightLeg 26.148941 -0.000000 -0.000000
RightFoot -33.475305 -25.713640 22.281680
RightToeBase 8.428418 -0.000000 -0.000000
LeftUpLeg 8.310356 -4.096619 5.972809
LeftLeg 103.410443 -0.000000 -0.000000
LeftFoot 24.702056 21.493651 -33.738606
LeftToeBase -5.793568 -0.000000 0.000000
Spine 11.186227 5.651971 -9.052864
RightShoulder -0.878745 -21.202530 -17.990367
RightArm 20.712938 17.178333 49.565188
RightForeArm 8.941853 0.000000 112.513764
RightHand 3.549027 -0.000000 -36.753276
RightHandThumb1 -24.326973 -0.000000 -32.862282
LeftShoulder -28.263573 35.936272 -16.414407
LeftArm 27.449253 -14.525773 -71.560745
LeftForeArm 33.289960 0.000000 55.042489
LeftHand -28.877363 0.000000 18.355980
LeftHandThumb1 -26.253704 0.000000 33.147579
Head 13.769700 -23.603161 -14.289814
3937
root 2.173585 37.516917 6.327371 13.534368 26.461736 28.370453
RightUpLeg -6.786954 -16.691992 -18.300073
RightLeg 26.095630 -0.000000 -0.000000
RightFoot -33.141512 -25.197154 21.925826
RightToeBase 8.145314 -0.000000 -0.000000
LeftUpLeg 8.790631 -5.102099 5.477331
LeftLeg 103.490996 -0.000000 -0.000000
LeftFoot 24.541795 21.587593 -33.873947
LeftToeBase -5.671269 -0.000000 0.000000
Spine 10.792583 6.403784 -9.204305
RightShoulder -0.778589 -21.213944 -17.965021
RightArm 20.772327 17.074053 49.591066
RightForeArm 8.769376 -0.000000 112.499077
RightHand 3.547844 0.000000 -36.688916
RightHandThumb1 -24.326973 -0.000000 -32.862282
LeftShoulder -28.447682 35.945036 -16.528418
LeftArm 26.939811 -15.149370 -71.794171
LeftForeArm 33.295696 0.000000 54.947919
LeftHand -29.548809 0.000000 18.404908
LeftHandThumb1 -26.253704 0.000000 33.147579
Head 13.775792 -23.535126 -14.293646
3938
root 2.172028 37.532146 6.313999 13.636238 25.699032 28.269481
RightUpLeg -7.274033 -16.610774 -18.328951
RightLeg 26.081015 -0.000000 -0.000000
RightFoot -32.845993 -24.745521 21.629547
RightToeBase 8.075775 -0.000000 -0.000000
LeftUpLeg 9.216542 -6.076659 5.078008
LeftLeg 103.636483 -0.000000 -0.000000
LeftFoot 24.549280 21.667982 -33.767091
LeftToeBase -5.775437 -0.000000 0.000000
Spine 10.482794 7.041683 -9.352975
RightShoulder -0.666931 -21.163688 -17.966489
RightArm 20.786202 17.001664 49.655007
RightForeArm 8.674282 -0.000000 112.509457
RightHand 3.505529 0.000000 -36.623456
RightHandThumb1 -24.326973 -0.000000 -32.862282
LeftShoulder -28.717002 35.968663 -16.683307
LeftArm 26.558288 -15.702981 -71.994216
LeftForeArm 33.214736 -0.000000 54.840652
LeftHand -29.822135 0.000000 19.137917
LeftHandThumb1 -26.253704 0.000000 33.147579
Head 13.691065 -23.499029 -14.250741
3939
root 2.168513 37.547535 6.299702 13.739135 24.950882 28.130609
RightUpLeg -7.760630 -16.459879 -18.299851
RightLeg 26.023429 -0.000000 -0.000000
RightFoot -32.566749 -24.369696 21.371390
RightToeBase 8.035427 -0.000000 -0.000000
LeftUpLeg 9.590429 -6.917395 4.789534
LeftLeg 103.828167 -0.000000 -0.000000
LeftFoot 24.511483 21.774365 -33.859549
LeftToeBase -5.592429 -0.000000 0.000000
Spine 10.147092 7.683763 -9.458502
RightShoulder -0.557139 -21.166398 -17.967266
RightArm 20.816147 16.966815 49.723083
RightForeArm 8.621480 -0.000000 112.516413
RightHand 3.509987 -0.000000 -36.589053
RightHandThumb1 -24.326973 -0.000000 -32.862282
LeftShoulder -28.961994 36.017115 -16.823171
LeftArm 26.173952 -16.291062 -72.210904
LeftForeArm 33.038171 -0.000000 54.843822
LeftHand -30.428836 -0.000000 19.401193
LeftHandThumb1 -26.253704 0.000000 33.147579
Head 13.658223 -23.484030 -14.237126
3940
root 2.170176 37.562100 6.284536 13.841418 24.250773 27.997931
RightUpLeg -8.231497 -16.322242 -18.273795
RightLeg 25.990874 -0.000000 -0.000000
RightFoot -32.314165 -23.984763 21.171147
RightToeBase 8.230831 -0.000000 -0.000000
LeftUpLeg 9.951455 -7.712308 4.561823
LeftLeg 104.086759 -0.000000 -0.000000
LeftFoot 24.471506 21.757355 -33.922715
LeftToeBase -5.275617 -0.000000 0.000000
Spine 9.819828 8.297681 -9.539723
RightShoulder -0.475643 -21.184995 -17.990019
RightArm 20.846265 16.936263 49.811430
RightForeArm 8.592083 0.000000 112.521161
RightHand 3.492251 -0.000000 -36.573970
RightHandThumb1 -24.326973 -0.000000 -32.862282
LeftShoulder -29.189731 36.021032 -16.911705
LeftArm 25.746418 -16.845448 -72.415297
LeftForeArm 32.916394 0.000000 54.898067
LeftHand -30.696293 -0.000000 19.872439
LeftHandThumb1 -26.253704 0.000000 33.147579
Head 13.645548 -23.486020 -14.252024
3941
root 2.173162 37.581818 6.269176 13.955417 23.568675 27.992142
RightUpLeg -8.630101 -16.237776 -18.379302
RightLeg 25.928299 -0.000000 -0.000000
RightFoot -32.039914 -23.607030 20.888973
RightToeBase 8.221266 -0.000000 -0.000000
LeftUpLeg 10.377045 -8.469786 4.140829
LeftLeg 104.320685 -0.000000 -0.000000
LeftFoot 25.023747 21.443360 -33.296620
LeftToeBase -7.016774 -0.000000 0.000000
Spine 9.542115 8.919468 -9.775673
RightShoulder -0.384222 -21.226721 -17.954477
RightArm 20.851727 16.957398 49.906345
RightForeArm 8.526456 -0.000000 112.534083
RightHand 3.442448 -0.000000 -36.515547
RightHandThumb1 -24.326973 -0.000000 -32.862282
LeftShoulder -29.355059 36.043859 -16.914850
LeftArm 25.329305 -17.403280 -72.650428
LeftForeArm 32.775854 0.000000 55.116262
LeftHand -31.222810 -0.000000 20.150554
LeftHandThumb1 -26.253704 0.000000 33.147579
Head 13.677186 -23.525149 -14.194066
3942
root 2.174275 37.596103 6.251999 14.095535 22.935119 27.927709
RightUpLeg -9.092846 -16.099383 -18.385874
RightLeg 25.904530 -0.000000 -0.000000
RightFoot -31.826531 -23.356462 20.679464
RightToeBase 8.000831 -0.000000 -0.000000
LeftUpLeg 10.686002 -9.119099 3.939149
LeftLeg 104.636495 -0.000000 -0.000000
LeftFoot 25.209912 21.414024 -33.101831
LeftToeBase -7.037097 -0.000000 0.000000
Spine 9.205528 9.527915 -9.929478
RightShoulder -0.338996 -21.318477 -17.939115
RightArm 20.874153 16.974330 49.996566
RightForeArm 8.478625 -0.000000 112.542854
RightHand 3.457318 -0.000000 -36.542813
RightHandThumb1 -24.326973 -0.000000 -32.862282
LeftShoulder -29.520498 36.075200 -16.921390
LeftArm 24.911068 -17.930178 -72.825375
LeftForeArm 32.732682 -0.000000 55.450409
LeftHand -32.017806 -0.000000 20.317777
LeftHandThumb1 -26.253704 0.000000 33.147579
Head 13.739676 -23.603425 -14.181544
